<svg aria-hidden="true" style="position: absolute; width: 0; height: 0; overflow: hidden;" version="1.1" xmlns="http://www.w3.org/2000/svg" xmlns:xlink="http://www.w3.org/1999/xlink">
<defs>
<symbol id="icon-storefrontfooter" viewBox="0 0 33 32">
<path fill="#a259ff" style="fill: var(--color1, #a259ff)" d="M6.293 12.449c0.552 0 1 0.448 1 1v12.55h18v-12.55c0-0.552 0.448-1 1-1s1 0.448 1 1v12.55c0 0.53-0.211 1.039-0.586 1.414s-0.884 0.586-1.414 0.586h-18c-0.53 0-1.039-0.211-1.414-0.586s-0.586-0.884-0.586-1.414v-12.55c0-0.552 0.448-1 1-1z"></path>
<path fill="#a259ff" style="fill: var(--color1, #a259ff)" d="M3.293 5c0-0.552 0.448-1 1-1h24c0.552 0 1 0.448 1 1s-0.448 1-1 1h-24c-0.552 0-1-0.448-1-1z"></path>
<path fill="#a259ff" style="fill: var(--color1, #a259ff)" d="M4.293 7c0.552 0 1 0.448 1 1v2c0 0.796 0.316 1.559 0.879 2.121s1.326 0.879 2.121 0.879c0.796 0 1.559-0.316 2.121-0.879s0.879-1.326 0.879-2.121v-2c0-0.552 0.448-1 1-1s1 0.448 1 1v2c0 1.326-0.527 2.598-1.464 3.535s-2.209 1.464-3.536 1.464-2.598-0.527-3.536-1.464c-0.938-0.938-1.464-2.209-1.464-3.535v-2c0-0.552 0.448-1 1-1z"></path>
<path fill="#a259ff" style="fill: var(--color1, #a259ff)" d="M12.293 7c0.552 0 1 0.448 1 1v2c0 0.796 0.316 1.559 0.879 2.121s1.326 0.879 2.121 0.879c0.796 0 1.559-0.316 2.121-0.879s0.879-1.326 0.879-2.121v-2c0-0.552 0.448-1 1-1s1 0.448 1 1v2c0 1.326-0.527 2.598-1.465 3.535s-2.209 1.464-3.535 1.464-2.598-0.527-3.536-1.464c-0.938-0.938-1.464-2.209-1.464-3.535v-2c0-0.552 0.448-1 1-1z"></path>
<path fill="#a259ff" style="fill: var(--color1, #a259ff)" d="M20.293 7c0.552 0 1 0.448 1 1v2c0 0.796 0.316 1.559 0.879 2.121s1.326 0.879 2.121 0.879c0.796 0 1.559-0.316 2.121-0.879s0.879-1.326 0.879-2.121v-2c0-0.552 0.448-1 1-1s1 0.448 1 1v2c0 1.326-0.527 2.598-1.465 3.535s-2.209 1.464-3.535 1.464-2.598-0.527-3.536-1.464c-0.938-0.938-1.464-2.209-1.464-3.535v-2c0-0.552 0.448-1 1-1z"></path>
</symbol>
<symbol id="icon-instagram" viewBox="0 0 32 32">
<path d="M15.799 12.121c-2.142 0-3.879 1.737-3.879 3.879s1.737 3.879 3.879 3.879c2.142 0 3.879-1.737 3.879-3.879s-1.737-3.879-3.879-3.879zM9.981 16c0-3.213 2.605-5.818 5.818-5.818s5.818 2.605 5.818 5.818c0 3.213-2.605 5.818-5.818 5.818s-5.818-2.605-5.818-5.818z"></path>
<path d="M10.466 5.818c-2.678 0-4.848 2.171-4.848 4.848v10.667c0 2.678 2.171 4.849 4.848 4.849h10.667c2.678 0 4.848-2.171 4.848-4.849v-10.667c0-2.678-2.171-4.848-4.849-4.848h-10.667zM3.678 10.667c0-3.749 3.039-6.788 6.788-6.788h10.667c3.749 0 6.788 3.039 6.788 6.788v10.667c0 3.749-3.039 6.788-6.788 6.788h-10.667c-3.749 0-6.788-3.039-6.788-6.788v-10.667z"></path>
<path d="M22.102 11.152c0.803 0 1.455-0.651 1.455-1.455s-0.651-1.455-1.455-1.455c-0.803 0-1.455 0.651-1.455 1.455s0.651 1.455 1.455 1.455z"></path>
</symbol>
<symbol id="icon-twitter" viewBox="0 0 32 32">
<path stroke-linejoin="round" stroke-linecap="round" stroke-miterlimit="4" stroke-width="1.9394" d="M15.799 11.152c0-2.667 2.242-4.885 4.909-4.849 0.934 0.011 1.845 0.291 2.623 0.807s1.391 1.246 1.765 2.102h4.279l-3.915 3.915c-0.253 3.933-1.994 7.622-4.869 10.317s-6.669 4.194-10.61 4.192c-3.879 0-4.848-1.455-4.848-1.455s3.879-1.455 5.818-4.364c0 0-7.758-3.879-5.818-14.546 0 0 4.848 4.849 10.667 5.818v-1.939z"></path>
</symbol>
<symbol id="icon-youtube" viewBox="0 0 32 32">
<path d="M13.402 11.266c0.315-0.169 0.698-0.15 0.995 0.048l5.818 3.879c0.27 0.18 0.432 0.483 0.432 0.807s-0.162 0.627-0.432 0.807l-5.818 3.879c-0.298 0.198-0.68 0.217-0.995 0.048s-0.512-0.497-0.512-0.855v-7.758c0-0.358 0.197-0.686 0.512-0.855zM14.83 13.933v4.134l3.1-2.067-3.1-2.067z"></path>
<path d="M15.798 5.383h0.080c0.053 0 0.13 0 0.229 0.002 0.197 0.002 0.482 0.007 0.836 0.017 0.707 0.021 1.693 0.066 2.809 0.16 2.207 0.186 5.018 0.573 7.181 1.4l0.014 0.006c0.425 0.17 0.804 0.438 1.107 0.781s0.52 0.753 0.635 1.196l0.001 0.004c0.302 1.182 0.685 3.373 0.685 7.052s-0.383 5.871-0.685 7.052l-0.001 0.004c-0.115 0.443-0.333 0.853-0.635 1.196s-0.682 0.611-1.107 0.781l-0.014 0.006c-2.164 0.827-4.974 1.213-7.181 1.4-1.116 0.094-2.102 0.139-2.809 0.16-0.354 0.011-0.639 0.015-0.836 0.018-0.099 0.001-0.176 0.001-0.229 0.002h-0.157c-0.053-0-0.13-0-0.229-0.002-0.198-0.002-0.482-0.007-0.836-0.018-0.707-0.021-1.693-0.066-2.809-0.16-2.207-0.186-5.018-0.573-7.181-1.4l-0.014-0.006c-0.425-0.17-0.804-0.438-1.107-0.781s-0.52-0.753-0.635-1.196l-0.001-0.004c-0.302-1.182-0.685-3.373-0.685-7.052s0.383-5.871 0.685-7.052l0.001-0.004c0.115-0.443 0.333-0.853 0.635-1.196s0.682-0.611 1.107-0.781l0.014-0.006c2.164-0.827 4.974-1.213 7.181-1.4 1.116-0.094 2.102-0.139 2.809-0.16 0.354-0.011 0.639-0.015 0.836-0.017 0.099-0.001 0.176-0.001 0.229-0.002h0.077zM15.794 24.68l0.010-0 0.003 0h0.066c0.048-0 0.119-0 0.212-0.001 0.186-0.002 0.459-0.006 0.799-0.017 0.681-0.020 1.631-0.064 2.704-0.154 2.168-0.183 4.748-0.553 6.644-1.276 0.14-0.057 0.266-0.146 0.366-0.26 0.101-0.115 0.174-0.252 0.213-0.401 0.256-1.001 0.624-3.028 0.624-6.57s-0.368-5.569-0.624-6.57c-0.039-0.148-0.112-0.286-0.213-0.401-0.1-0.114-0.225-0.203-0.366-0.26-1.896-0.723-4.476-1.093-6.644-1.276-1.073-0.091-2.023-0.134-2.704-0.154-0.34-0.010-0.613-0.015-0.799-0.017-0.093-0.001-0.165-0.001-0.212-0.001h-0.149c-0.048 0-0.119 0-0.212 0.001-0.186 0.002-0.459 0.006-0.799 0.017-0.681 0.020-1.631 0.064-2.704 0.154-2.168 0.183-4.748 0.553-6.644 1.276-0.14 0.057-0.266 0.146-0.366 0.26-0.101 0.115-0.174 0.252-0.213 0.401-0.256 1.001-0.624 3.028-0.624 6.57s0.368 5.569 0.624 6.57c0.039 0.148 0.112 0.285 0.213 0.401 0.1 0.114 0.226 0.203 0.366 0.26 1.896 0.723 4.476 1.093 6.644 1.276 1.073 0.091 2.023 0.134 2.704 0.154 0.34 0.010 0.612 0.015 0.799 0.017 0.093 0.001 0.165 0.001 0.212 0.001h0.069z"></path>
</symbol>
<symbol id="icon-discord" viewBox="0 0 32 32">
<path d="M11.921 19.394c0.803 0 1.455-0.651 1.455-1.455s-0.651-1.455-1.455-1.455c-0.803 0-1.455 0.651-1.455 1.455s0.651 1.455 1.455 1.455z"></path>
<path d="M19.678 19.394c0.803 0 1.455-0.651 1.455-1.455s-0.651-1.455-1.455-1.455c-0.803 0-1.455 0.651-1.455 1.455s0.651 1.455 1.455 1.455z"></path>
<path d="M15.792 10.182c-2.102-0.016-4.194 0.297-6.2 0.925-0.511 0.16-1.055-0.124-1.215-0.635s0.124-1.055 0.635-1.215c2.196-0.688 4.486-1.030 6.787-1.014 2.301-0.016 4.591 0.326 6.787 1.014 0.511 0.16 0.795 0.704 0.635 1.215s-0.704 0.795-1.215 0.635c-2.006-0.629-4.098-0.941-6.2-0.925h-0.014z"></path>
<path d="M8.377 21.528c0.16-0.511 0.704-0.795 1.215-0.635 2.006 0.629 4.098 0.941 6.2 0.925h0.014c2.102 0.015 4.194-0.297 6.2-0.925 0.511-0.16 1.055 0.124 1.215 0.635s-0.124 1.055-0.635 1.215c-2.196 0.688-4.486 1.030-6.787 1.014-2.301 0.016-4.591-0.326-6.787-1.014-0.511-0.16-0.795-0.704-0.635-1.215z"></path>
<path d="M19.891 5.149c0.417-0.235 0.907-0.309 1.375-0.207 1.278 0.277 2.529 0.665 3.738 1.161 0.272 0.105 0.517 0.271 0.715 0.486 0.2 0.217 0.347 0.478 0.429 0.761l4.107 13.716c0.107 0.357 0.11 0.738 0.007 1.097s-0.306 0.68-0.585 0.927l-0.005 0.004c-2.005 1.744-4.721 3.065-7.807 3.821-0.429 0.109-0.882 0.067-1.283-0.12-0.399-0.186-0.722-0.505-0.914-0.901l-1.463-2.901c-0.241-0.478-0.049-1.061 0.429-1.302s1.061-0.049 1.302 0.429l1.468 2.911c2.849-0.699 5.267-1.898 6.993-3.4l0.637 0.732-0.642-0.727c0.002-0.002 0.003-0.004 0.004-0.006s0.001-0.005 0-0.007l-4.108-13.717c-0.003-0.001-0.007-0.003-0.010-0.004-1.108-0.455-2.254-0.811-3.425-1.065l-0.002-0c-0.003-0.001-0.006-0-0.009 0.001s-0.004 0.003-0.005 0.006l-0.955 2.889c-0.168 0.509-0.716 0.784-1.225 0.616s-0.784-0.717-0.616-1.225l0.96-2.905c0.155-0.454 0.471-0.835 0.889-1.071z"></path>
<path d="M10.755 6.839c-0.003-0.001-0.006-0.002-0.009-0.001l-0.002 0c-1.171 0.254-2.317 0.61-3.425 1.065-0.003 0.001-0.007 0.003-0.010 0.004l-4.108 13.716c-0.001 0.002-0.001 0.005-0 0.007s0.002 0.004 0.003 0.005c1.726 1.5 4.143 2.698 6.989 3.396l0.001-0.002 1.467-2.909c0.241-0.478 0.824-0.67 1.302-0.429s0.67 0.824 0.429 1.302l-1.463 2.901c-0.192 0.396-0.515 0.715-0.914 0.901-0.401 0.187-0.854 0.23-1.283 0.12-3.086-0.756-5.802-2.077-7.807-3.821l-0.005-0.004c-0.28-0.247-0.483-0.569-0.585-0.927s-0.1-0.739 0.007-1.096c0 0-0 0 0 0l4.108-13.716c0.082-0.283 0.229-0.544 0.429-0.761 0.198-0.215 0.442-0.381 0.715-0.486 1.21-0.496 2.461-0.884 3.739-1.161 0.468-0.102 0.957-0.028 1.374 0.207s0.734 0.617 0.889 1.071l0.003 0.008 0.958 2.897c0.168 0.508-0.108 1.057-0.616 1.225s-1.057-0.108-1.225-0.616l-0.955-2.889c-0.001-0.002-0.003-0.005-0.005-0.006z"></path>
</symbol>
<symbol id="icon-EnvelopeSimple" viewBox="0 0 32 32">
<path fill="#fff" style="fill: var(--color3, #fff)" d="M3 7c0-0.552 0.448-1 1-1h24c0.552 0 1 0.448 1 1v17c0 0.53-0.211 1.039-0.586 1.414s-0.884 0.586-1.414 0.586h-22c-0.53 0-1.039-0.211-1.414-0.586s-0.586-0.884-0.586-1.414v-17zM5 8v16h22v-16h-22z"></path>
<path fill="#fff" style="fill: var(--color3, #fff)" d="M3.263 6.324c0.373-0.407 1.006-0.435 1.413-0.061l11.324 10.38 11.324-10.38c0.407-0.373 1.040-0.346 1.413 0.061s0.346 1.040-0.061 1.413l-12 11c-0.382 0.351-0.969 0.351-1.351 0l-12-11c-0.407-0.373-0.435-1.006-0.061-1.413z"></path>
</symbol>
<symbol id="icon-eye" viewBox="0 0 32 32">
<path fill="#a259ff" style="fill: var(--color1, #a259ff)" d="M4.543 10.793c2.384-2.384 6.125-4.793 11.457-4.793s9.073 2.409 11.457 4.793c1.189 1.189 2.046 2.376 2.608 3.268 0.281 0.447 0.49 0.821 0.629 1.088 0.070 0.134 0.123 0.24 0.159 0.316 0.018 0.038 0.032 0.068 0.042 0.089l0.012 0.026 0.004 0.008 0.001 0.003 0 0.001c0 0 0 0.001-0.913 0.407 0.914 0.406 0.914 0.407 0.913 0.407l-0 0.001-0.001 0.003-0.004 0.008-0.012 0.026c-0.010 0.022-0.024 0.052-0.042 0.089-0.036 0.076-0.089 0.182-0.159 0.316-0.14 0.267-0.348 0.642-0.629 1.088-0.561 0.892-1.419 2.079-2.608 3.268-2.384 2.384-6.124 4.793-11.457 4.793s-9.073-2.409-11.457-4.793c-1.189-1.189-2.046-2.376-2.608-3.268-0.281-0.447-0.49-0.821-0.629-1.088-0.070-0.134-0.123-0.24-0.159-0.316-0.018-0.038-0.032-0.068-0.042-0.089l-0.012-0.026-0.004-0.008-0.001-0.003-0-0.001c-0-0-0-0.001 0.913-0.407-0.914-0.406-0.914-0.407-0.913-0.407l0.002-0.004 0.004-0.008 0.012-0.026c0.010-0.022 0.024-0.052 0.042-0.089 0.036-0.076 0.089-0.182 0.159-0.316 0.14-0.267 0.348-0.642 0.629-1.088 0.561-0.892 1.419-2.079 2.608-3.268zM2 16l-0.914-0.406c-0.115 0.259-0.115 0.554 0 0.812l0.914-0.406zM3.118 16c0.118 0.22 0.287 0.52 0.509 0.873 0.501 0.796 1.269 1.858 2.33 2.92 2.116 2.116 5.375 4.207 10.043 4.207s7.927-2.091 10.043-4.207c1.061-1.061 1.829-2.124 2.33-2.92 0.223-0.354 0.392-0.653 0.509-0.873-0.118-0.22-0.287-0.52-0.509-0.873-0.501-0.796-1.269-1.858-2.33-2.919-2.116-2.116-5.376-4.207-10.043-4.207s-7.927 2.091-10.043 4.207c-1.061 1.061-1.829 2.124-2.33 2.919-0.223 0.354-0.392 0.653-0.509 0.873zM30 16l0.914 0.406c0.115-0.259 0.115-0.554 0-0.812l-0.914 0.406z"></path>
<path fill="#a259ff" style="fill: var(--color1, #a259ff)" d="M16 12c-2.209 0-4 1.791-4 4s1.791 4 4 4c2.209 0 4-1.791 4-4s-1.791-4-4-4zM10 16c0-3.314 2.686-6 6-6s6 2.686 6 6c0 3.314-2.686 6-6 6s-6-2.686-6-6z"></path>
</symbol>
<symbol id="icon-planet" viewBox="0 0 32 32">
<path fill="none" stroke="#fff" style="stroke: var(--color3, #fff)" stroke-linejoin="round" stroke-linecap="round" stroke-miterlimit="4" stroke-width="0.96" d="M16 27c6.075 0 11-4.925 11-11s-4.925-11-11-11c-6.075 0-11 4.925-11 11s4.925 11 11 11z"></path>
<path fill="none" stroke="#fff" style="stroke: var(--color3, #fff)" stroke-linejoin="round" stroke-linecap="round" stroke-miterlimit="4" stroke-width="0.96" d="M23.025 7.537c3.462-0.95 6.063-0.862 6.837 0.463 1.375 2.388-3.712 7.912-11.363 12.325s-14.975 6.063-16.363 3.675c-0.762-1.325 0.462-3.625 3.013-6.15"></path>
</symbol>
<symbol id="icon-basketball" viewBox="0 0 32 32">
<path fill="none" stroke="#fff" style="stroke: var(--color3, #fff)" stroke-linejoin="round" stroke-linecap="round" stroke-miterlimit="4" stroke-width="0.96" d="M16 28c6.627 0 12-5.373 12-12s-5.373-12-12-12c-6.627 0-12 5.373-12 12s5.373 12 12 12z"></path>
<path fill="none" stroke="#fff" style="stroke: var(--color3, #fff)" stroke-linejoin="round" stroke-linecap="round" stroke-miterlimit="4" stroke-width="0.96" d="M7.5 7.526c2.244 2.25 3.503 5.298 3.5 8.475 0.003 3.177-1.256 6.225-3.5 8.475"></path>
<path fill="none" stroke="#fff" style="stroke: var(--color3, #fff)" stroke-linejoin="round" stroke-linecap="round" stroke-miterlimit="4" stroke-width="0.96" d="M24.501 7.526c-2.241 2.251-3.499 5.298-3.499 8.475s1.258 6.224 3.499 8.475"></path>
<path fill="none" stroke="#fff" style="stroke: var(--color3, #fff)" stroke-linejoin="round" stroke-linecap="round" stroke-miterlimit="4" stroke-width="0.96" d="M4 16h24"></path>
<path fill="none" stroke="#fff" style="stroke: var(--color3, #fff)" stroke-linejoin="round" stroke-linecap="round" stroke-miterlimit="4" stroke-width="0.96" d="M16 4v24"></path>
</symbol>
<symbol id="icon-magicwand" viewBox="0 0 32 32">
<path fill="none" stroke="#fff" style="stroke: var(--color3, #fff)" stroke-linejoin="round" stroke-linecap="round" stroke-miterlimit="4" stroke-width="0.96" d="M27 16v6"></path>
<path fill="none" stroke="#fff" style="stroke: var(--color3, #fff)" stroke-linejoin="round" stroke-linecap="round" stroke-miterlimit="4" stroke-width="0.96" d="M24 19h6"></path>
<path fill="none" stroke="#fff" style="stroke: var(--color3, #fff)" stroke-linejoin="round" stroke-linecap="round" stroke-miterlimit="4" stroke-width="0.96" d="M10.5 5v5"></path>
<path fill="none" stroke="#fff" style="stroke: var(--color3, #fff)" stroke-linejoin="round" stroke-linecap="round" stroke-miterlimit="4" stroke-width="0.96" d="M8 7.5h5"></path>
<path fill="none" stroke="#fff" style="stroke: var(--color3, #fff)" stroke-linejoin="round" stroke-linecap="round" stroke-miterlimit="4" stroke-width="0.96" d="M21 23v4"></path>
<path fill="none" stroke="#fff" style="stroke: var(--color3, #fff)" stroke-linejoin="round" stroke-linecap="round" stroke-miterlimit="4" stroke-width="0.96" d="M19 25h4"></path>
<path fill="none" stroke="#fff" style="stroke: var(--color3, #fff)" stroke-linejoin="round" stroke-linecap="round" stroke-miterlimit="4" stroke-width="0.96" d="M23.303 4.704l-18.588 18.588c-0.391 0.391-0.391 1.024 0 1.414l2.585 2.585c0.391 0.391 1.024 0.391 1.414 0l18.588-18.588c0.391-0.391 0.391-1.024 0-1.414l-2.585-2.585c-0.391-0.391-1.024-0.391-1.414 0z"></path>
<path fill="none" stroke="#fff" style="stroke: var(--color3, #fff)" stroke-linejoin="round" stroke-linecap="round" stroke-miterlimit="4" stroke-width="0.96" d="M18 10l4 4"></path>
</symbol>
<symbol id="icon-videocamera" viewBox="0 0 32 32">
<path fill="none" stroke="#fff" style="stroke: var(--color3, #fff)" stroke-linejoin="round" stroke-linecap="round" stroke-miterlimit="4" stroke-width="0.96" d="M3 7.5h16c1.061 0 2.078 0.421 2.828 1.172s1.172 1.768 1.172 2.828v12c0 0.265-0.105 0.52-0.293 0.707s-0.442 0.293-0.707 0.293h-16c-1.061 0-2.078-0.421-2.828-1.172s-1.172-1.768-1.172-2.828v-12c0-0.265 0.105-0.52 0.293-0.707s0.442-0.293 0.707-0.293v0z"></path>
<path fill="none" stroke="#fff" style="stroke: var(--color3, #fff)" stroke-linejoin="round" stroke-linecap="round" stroke-miterlimit="4" stroke-width="0.96" d="M23 14l7-4v12l-7-4"></path>
</symbol>
<symbol id="icon-camera" viewBox="0 0 32 32">
<path fill="none" stroke="#fff" style="stroke: var(--color3, #fff)" stroke-linejoin="round" stroke-linecap="round" stroke-miterlimit="4" stroke-width="0.96" d="M26 26h-20c-0.53 0-1.039-0.211-1.414-0.586s-0.586-0.884-0.586-1.414v-14c0-0.53 0.211-1.039 0.586-1.414s0.884-0.586 1.414-0.586h4l2-3h8l2 3h4c0.53 0 1.039 0.211 1.414 0.586s0.586 0.884 0.586 1.414v14c0 0.53-0.211 1.039-0.586 1.414s-0.884 0.586-1.414 0.586z"></path>
<path fill="none" stroke="#fff" style="stroke: var(--color3, #fff)" stroke-linejoin="round" stroke-linecap="round" stroke-miterlimit="4" stroke-width="0.96" d="M16 21c2.485 0 4.5-2.015 4.5-4.5s-2.015-4.5-4.5-4.5c-2.485 0-4.5 2.015-4.5 4.5s2.015 4.5 4.5 4.5z"></path>
</symbol>
<symbol id="icon-musicnotes" viewBox="0 0 32 32">
<path fill="none" stroke="#fff" style="stroke: var(--color3, #fff)" stroke-linejoin="round" stroke-linecap="round" stroke-miterlimit="4" stroke-width="0.96" d="M22.5 25c1.933 0 3.5-1.567 3.5-3.5s-1.567-3.5-3.5-3.5c-1.933 0-3.5 1.567-3.5 3.5s1.567 3.5 3.5 3.5z"></path>
<path fill="none" stroke="#fff" style="stroke: var(--color3, #fff)" stroke-linejoin="round" stroke-linecap="round" stroke-miterlimit="4" stroke-width="0.96" d="M6.5 29c1.933 0 3.5-1.567 3.5-3.5s-1.567-3.5-3.5-3.5c-1.933 0-3.5 1.567-3.5 3.5s1.567 3.5 3.5 3.5z"></path>
<path fill="none" stroke="#fff" style="stroke: var(--color3, #fff)" stroke-linejoin="round" stroke-linecap="round" stroke-miterlimit="4" stroke-width="0.96" d="M26 10l-16 4"></path>
<path fill="none" stroke="#fff" style="stroke: var(--color3, #fff)" stroke-linejoin="round" stroke-linecap="round" stroke-miterlimit="4" stroke-width="0.96" d="M10 25.5v-17.5l16-4v17.5"></path>
</symbol>
<symbol id="icon-swatches" viewBox="0 0 32 32">
<path fill="none" stroke="#fff" style="stroke: var(--color3, #fff)" stroke-linejoin="round" stroke-linecap="round" stroke-miterlimit="4" stroke-width="0.96" d="M4.587 21.625l3.025-17.137c0.021-0.129 0.068-0.253 0.137-0.364s0.16-0.207 0.267-0.283c0.107-0.076 0.228-0.129 0.356-0.158s0.26-0.031 0.389-0.008l6.9 1.212c0.261 0.049 0.492 0.198 0.644 0.415s0.212 0.486 0.169 0.747l-3.037 17.238c-0.208 1.161-0.862 2.194-1.822 2.878s-2.15 0.966-3.315 0.784c-2.487-0.4-4.15-2.837-3.713-5.325z"></path>
<path fill="none" stroke="#fff" style="stroke: var(--color3, #fff)" stroke-linejoin="round" stroke-linecap="round" stroke-miterlimit="4" stroke-width="0.96" d="M14.787 15.6l9.112-3.313c0.124-0.046 0.256-0.066 0.388-0.061s0.262 0.037 0.381 0.093c0.12 0.056 0.227 0.135 0.316 0.232s0.158 0.212 0.203 0.336l2.4 6.575c0.088 0.249 0.075 0.522-0.037 0.761s-0.315 0.424-0.563 0.514l-16.45 5.988"></path>
<path fill="none" stroke="#fff" style="stroke: var(--color3, #fff)" stroke-linejoin="round" stroke-linecap="round" stroke-miterlimit="4" stroke-width="0.96" d="M27.5 20.313v5.688c0 0.265-0.105 0.52-0.293 0.707s-0.442 0.293-0.707 0.293h-17.5"></path>
<path fill="#fff" style="fill: var(--color3, #fff)" d="M9 24c0.828 0 1.5-0.672 1.5-1.5s-0.672-1.5-1.5-1.5c-0.828 0-1.5 0.672-1.5 1.5s0.672 1.5 1.5 1.5z"></path>
</symbol>
<symbol id="icon-paintbrush" viewBox="0 0 32 32">
<path fill="none" stroke="#fff" style="stroke: var(--color3, #fff)" stroke-linejoin="round" stroke-linecap="round" stroke-miterlimit="4" stroke-width="0.96" d="M2.5 27h9c1.286 0 2.542-0.381 3.611-1.095s1.902-1.729 2.394-2.917c0.492-1.188 0.621-2.495 0.37-3.756s-0.87-2.419-1.779-3.328-2.067-1.528-3.328-1.779c-1.261-0.251-2.568-0.122-3.756 0.37s-2.203 1.325-2.917 2.394c-0.714 1.069-1.095 2.326-1.095 3.611 0 4.5-2.5 6.5-2.5 6.5z"></path>
<path fill="none" stroke="#fff" style="stroke: var(--color3, #fff)" stroke-linejoin="round" stroke-linecap="round" stroke-miterlimit="4" stroke-width="0.96" d="M14.050 14.525c2.4-3.237 8.5-10.65 14.075-10.65 0 5.575-7.412 11.675-10.65 14.075"></path>
<path fill="none" stroke="#fff" style="stroke: var(--color3, #fff)" stroke-linejoin="round" stroke-linecap="round" stroke-miterlimit="4" stroke-width="0.96" d="M16.625 11.325c1.694 0.956 3.094 2.356 4.050 4.050"></path>
</symbol>
<symbol id="icon-rocket" viewBox="0 0 32 32">
<path d="M9.873 19.919c0.176 0.524-0.106 1.091-0.629 1.267-1.695 0.57-2.596 1.993-3.078 3.44-0.191 0.575-0.307 1.128-0.376 1.585 0.457-0.069 1.011-0.185 1.585-0.376 1.447-0.482 2.87-1.383 3.44-3.078 0.176-0.523 0.743-0.805 1.267-0.629s0.805 0.743 0.629 1.267c-0.855 2.542-2.97 3.76-4.704 4.338-0.876 0.292-1.696 0.436-2.295 0.508-0.301 0.036-0.549 0.054-0.726 0.064-0.088 0.005-0.159 0.007-0.21 0.008-0.025 0.001-0.045 0.001-0.060 0.001l-0.018 0h-0.009c-0 0-0.001 0-0.001-1-1 0-1-0-1-0.001v-0.003l0-0.006 0-0.018c0-0.015 0.001-0.035 0.001-0.060 0.001-0.050 0.004-0.121 0.008-0.209 0.009-0.177 0.028-0.425 0.064-0.726 0.072-0.599 0.216-1.419 0.508-2.295 0.577-1.734 1.795-3.849 4.338-4.704 0.523-0.176 1.091 0.106 1.267 0.629zM4.688 27.313h-1c0 0.552 0.448 1 1 1v-1z"></path>
<path d="M26.474 5.527c0.167 1.161 0.231 4.018-2.694 6.942l-7.78 7.78-4.248-4.248 7.78-7.78c2.924-2.924 5.781-2.861 6.942-2.694zM26.764 3.548c-1.596-0.231-5.155-0.233-8.646 3.258l-8.488 8.488c-0.188 0.188-0.293 0.442-0.293 0.707s0.105 0.52 0.293 0.707l5.662 5.663c0.391 0.391 1.024 0.391 1.414 0l8.488-8.488c3.491-3.491 3.489-7.050 3.258-8.646-0.058-0.427-0.255-0.824-0.56-1.129s-0.701-0.502-1.129-0.56z"></path>
<path d="M23.075 13.588c0.552 0 1 0.448 1 1v8.075l-0 0.014c-0.007 0.525-0.221 1.026-0.595 1.395l-4.036 4.048c-0.256 0.256-0.577 0.437-0.928 0.525s-0.72 0.079-1.066-0.027c-0.346-0.105-0.658-0.303-0.901-0.571s-0.408-0.597-0.479-0.952c-0-0 0 0 0 0l-1.050-5.237c-0.109-0.541 0.242-1.068 0.784-1.177s1.069 0.242 1.177 0.784l1.050 5.239 4.044-4.057v-8.061c0-0.552 0.448-1 1-1z"></path>
<path d="M9.324 7.925l0.014-0h8.075c0.552 0 1 0.448 1 1s-0.448 1-1 1h-8.061l-0.008 0.008-0-0-4.047 4.036 5.238 1.050c0.541 0.109 0.892 0.636 0.784 1.177s-0.636 0.892-1.177 0.784l-5.236-1.050c-0-0-0.001-0-0.001-0-0.355-0.071-0.684-0.236-0.952-0.479s-0.466-0.555-0.571-0.901-0.114-0.715-0.027-1.066c0.088-0.351 0.269-0.672 0.525-0.928l0.002-0.002 4.047-4.034c0.369-0.374 0.87-0.588 1.395-0.595z"></path>
</symbol>
<symbol id="icon-user" viewBox="0 0 32 32">
<path fill="#fff" style="fill: var(--color3, #fff)" d="M16 5c-3.866 0-7 3.134-7 7s3.134 7 7 7c3.866 0 7-3.134 7-7s-3.134-7-7-7zM7 12c0-4.971 4.029-9 9-9s9 4.029 9 9c0 4.971-4.029 9-9 9s-9-4.029-9-9z"></path>
<path fill="#fff" style="fill: var(--color3, #fff)" d="M16 20.998c-2.282 0-4.524 0.601-6.5 1.742s-3.617 2.782-4.758 4.759c-0.276 0.478-0.888 0.642-1.366 0.366s-0.642-0.888-0.366-1.366c1.316-2.281 3.21-4.175 5.49-5.491s4.867-2.010 7.501-2.010 5.22 0.693 7.501 2.010c2.28 1.317 4.174 3.211 5.49 5.491 0.276 0.478 0.112 1.090-0.366 1.366s-1.090 0.112-1.366-0.366c-1.141-1.977-2.782-3.618-4.758-4.759s-4.218-1.742-6.5-1.742z"></path>
</symbol>
<symbol id="icon-storefront" viewBox="0 0 32 32">
<path fill="#fff" style="fill: var(--color3, #fff)" d="M0 0h32v32h-32v-32z"></path>
<path fill="#a259ff" style="fill: var(--color1, #a259ff)" d="M6 12.45c0.552 0 1 0.448 1 1v12.55h18v-12.55c0-0.552 0.448-1 1-1s1 0.448 1 1v12.55c0 0.53-0.211 1.039-0.586 1.414s-0.884 0.586-1.414 0.586h-18c-0.53 0-1.039-0.211-1.414-0.586s-0.586-0.884-0.586-1.414v-12.55c0-0.552 0.448-1 1-1z"></path>
<path fill="#a259ff" style="fill: var(--color1, #a259ff)" d="M3 5c0-0.552 0.448-1 1-1h24c0.552 0 1 0.448 1 1s-0.448 1-1 1h-24c-0.552 0-1-0.448-1-1z"></path>
<path fill="#a259ff" style="fill: var(--color1, #a259ff)" d="M4 7c0.552 0 1 0.448 1 1v2c0 0.796 0.316 1.559 0.879 2.121s1.326 0.879 2.121 0.879c0.796 0 1.559-0.316 2.121-0.879s0.879-1.326 0.879-2.121v-2c0-0.552 0.448-1 1-1s1 0.448 1 1v2c0 1.326-0.527 2.598-1.464 3.535s-2.209 1.464-3.536 1.464-2.598-0.527-3.536-1.464c-0.938-0.938-1.464-2.209-1.464-3.535v-2c0-0.552 0.448-1 1-1z"></path>
<path fill="#a259ff" style="fill: var(--color1, #a259ff)" d="M12 7c0.552 0 1 0.448 1 1v2c0 0.796 0.316 1.559 0.879 2.121s1.326 0.879 2.121 0.879c0.796 0 1.559-0.316 2.121-0.879s0.879-1.326 0.879-2.121v-2c0-0.552 0.448-1 1-1s1 0.448 1 1v2c0 1.326-0.527 2.598-1.465 3.535s-2.209 1.464-3.535 1.464-2.598-0.527-3.535-1.464c-0.938-0.938-1.464-2.209-1.464-3.535v-2c0-0.552 0.448-1 1-1z"></path>
<path fill="#a259ff" style="fill: var(--color1, #a259ff)" d="M20 7c0.552 0 1 0.448 1 1v2c0 0.796 0.316 1.559 0.879 2.121s1.326 0.879 2.121 0.879c0.796 0 1.559-0.316 2.121-0.879s0.879-1.326 0.879-2.121v-2c0-0.552 0.448-1 1-1s1 0.448 1 1v2c0 1.326-0.527 2.598-1.465 3.535s-2.209 1.464-3.535 1.464-2.598-0.527-3.535-1.464c-0.938-0.938-1.465-2.209-1.465-3.535v-2c0-0.552 0.448-1 1-1z"></path>
</symbol>
</defs>
</svg>
